<svg xmlns="http://www.w3.org/2000/svg" width="864.266357421875" height="882.7340087890625" viewBox="-403.4333190917969 -466.1534729003906 864.266357421875 882.7340087890625"><title>Neo4j Graph Visualization</title><desc>Created using Neo4j (http://www.neo4j.com/)</desc><g class="layer relationships"><g class="relationship" transform="translate(20.213675434819834 -191.6355519248866) rotate(490.52126274962416)"><path class="b-outline" fill="#A5ABB6" stroke="none" d="M 25 0.5 L 54.77240300218128 0.5 L 54.77240300218128 -0.5 L 25 -0.5 Z M 83.45209050218128 0.5 L 113.22449350436256 0.5 L 113.22449350436256 3.5 L 120.22449350436256 0 L 113.22449350436256 -3.5 L 113.22449350436256 -0.5 L 83.45209050218128 -0.5 Z"/><text text-anchor="middle" pointer-events="none" font-size="8px" fill="#000000" x="69.11224675218128" y="3" transform="rotate(180 69.11224675218128 0)" font-family="Helvetica Neue, Helvetica, Arial, sans-serif">part of</text></g><g class="relationship" transform="translate(107.31280444036445 387.58052639428735) rotate(348.2712175694779)"><path class="b-outline" fill="#A5ABB6" stroke="none" d="M 24.018736134675446,-6.953439040707552 L 24.277555179777966,-5.987513214418485 A 178.4439899526346 178.4439899526346 0 0 1 54.037208852629526,-11.310306991786746 L 53.94516288674784,-12.306061750833834 A 179.4439899526346 179.4439899526346 0 0 0 24.018736134675446,-6.953439040707552 Z M 82.67213226301689,-12.651965713924795 L 82.60408944919718,-11.654283311811014 A 178.4439899526346 178.4439899526346 0 0 1 112.48328067267033,-7.049606107534689 L 111.77682332848819,-4.13397272508567 L 119.40416812241507,-5.887144534851195 L 113.42522379824653,-10.937117284133382 L 112.7187664540644,-8.021483901684363 A 179.4439899526346 179.4439899526346 0 0 0 82.67213226301689,-12.651965713924795"/><text text-anchor="middle" pointer-events="none" font-size="8px" fill="#000000" x="68.30773413727691" y="-9.55487378869239" font-family="Helvetica Neue, Helvetica, Arial, sans-serif">part of</text></g><g class="relationship" transform="translate(107.31280444036445 387.58052639428735) rotate(348.2712175694779)"><path class="b-outline" fill="#A5ABB6" stroke="none" d="M 24.018736134675446,6.953439040707552 L 24.277555179777966,5.987513214418485 A 178.4439899526346 178.4439899526346 0 0 0 45.450857792694705,10.306302675262657 L 45.310693921232584,11.296430994793411 A 179.4439899526346 179.4439899526346 0 0 1 24.018736134675446,6.953439040707552 Z M 91.32840838682407,11.850534339199271 L 91.2121261411566,10.857318129432969 A 178.4439899526346 178.4439899526346 0 0 0 112.48328067267033,7.049606107534689 L 111.77682332848819,4.13397272508567 L 119.40416812241507,5.887144534851195 L 113.42522379824653,10.937117284133382 L 112.7187664540644,8.021483901684363 A 179.4439899526346 179.4439899526346 0 0 1 91.32840838682407,11.850534339199271"/><text text-anchor="middle" pointer-events="none" font-size="8px" fill="#000000" x="68.30773413727691" y="15.55487378869239" font-family="Helvetica Neue, Helvetica, Arial, sans-serif">subclass of</text></g><g class="relationship" transform="translate(203.15664255142417 123.08399881295195) rotate(284.784225078664)"><path class="b-outline" fill="#A5ABB6" stroke="none" d="M 25 0.5 L 48.6782327133776 0.5 L 48.6782327133776 -0.5 L 25 -0.5 Z M 94.6977639633776 0.5 L 118.3759966767552 0.5 L 118.3759966767552 3.5 L 125.3759966767552 0 L 118.3759966767552 -3.5 L 118.3759966767552 -0.5 L 94.6977639633776 -0.5 Z"/><text text-anchor="middle" pointer-events="none" font-size="8px" fill="#000000" x="71.6879983383776" y="3" font-family="Helvetica Neue, Helvetica, Arial, sans-serif">subclass of</text></g><g class="relationship" transform="translate(-116.93892585988202 -390.9985329427812) rotate(341.1224695942684)"><path class="b-outline" fill="#A5ABB6" stroke="none" d="M 25 0.5 L 44.816877857279906 0.5 L 44.816877857279906 -0.5 L 25 -0.5 Z M 90.8364091072799 0.5 L 110.65328696455981 0.5 L 110.65328696455981 3.5 L 117.65328696455981 0 L 110.65328696455981 -3.5 L 110.65328696455981 -0.5 L 90.8364091072799 -0.5 Z"/><text text-anchor="middle" pointer-events="none" font-size="8px" fill="#000000" x="67.8266434822799" y="3" font-family="Helvetica Neue, Helvetica, Arial, sans-serif">subclass of</text></g><g class="relationship" transform="translate(-239.486617610812 -213.88902741134) rotate(197.6693449776555)"><path class="b-outline" fill="#A5ABB6" stroke="none" d="M 25 0.5 L 49.86093104515257 0.5 L 49.86093104515257 -0.5 L 25 -0.5 Z M 84.76718104515257 0.5 L 109.62811209030514 0.5 L 109.62811209030514 3.5 L 116.62811209030514 0 L 109.62811209030514 -3.5 L 109.62811209030514 -0.5 L 84.76718104515257 -0.5 Z"/><text text-anchor="middle" pointer-events="none" font-size="8px" fill="#000000" x="67.31405604515257" y="3" transform="rotate(180 67.31405604515257 0)" font-family="Helvetica Neue, Helvetica, Arial, sans-serif">has part</text></g><g class="relationship" transform="translate(431.8331089701392 -123.0775168509474) rotate(234.12446864447753)"><path class="b-outline" fill="#A5ABB6" stroke="none" d="M 21.40063509461097,12.933012701892217 L 21.90063509461097,12.06698729810778 A 97.3357358287905 97.3357358287905 0 0 0 51.06629012579865,23.13375750660967 L 50.865929870470524,24.113479797917194 A 98.3357358287905 98.3357358287905 0 0 1 21.40063509461097,12.933012701892217 Z M 85.75528044711899,24.927717948825133 L 85.60084241591787,23.939715471845076 A 97.3357358287905 97.3357358287905 0 0 0 115.25100996908535,14.245572894230298 L 113.87384340493648,11.580350154084478 L 121.69939079011708,11.476388034573906 L 117.08723205461717,17.799203214424725 L 115.71006549046831,15.133980474278905 A 98.3357358287905 98.3357358287905 0 0 1 85.75528044711899,24.927717948825133"/><text text-anchor="middle" pointer-events="none" font-size="8px" fill="#000000" x="68.28586081726601" y="28.580870988381193" transform="rotate(180 68.28586081726601 25.580870988381193)" font-family="Helvetica Neue, Helvetica, Arial, sans-serif">has part</text></g><g class="relationship" transform="translate(431.8331089701392 -123.0775168509474) rotate(234.12446864447753)"><path class="b-outline" fill="#A5ABB6" stroke="none" d="M 25 0.5 L 45.445024520666124 0.5 L 45.445024520666124 -0.5 L 25 -0.5 Z M 91.46455577066612 0.5 L 111.90958029133225 0.5 L 111.90958029133225 3.5 L 118.90958029133225 0 L 111.90958029133225 -3.5 L 111.90958029133225 -0.5 L 91.46455577066612 -0.5 Z"/><text text-anchor="middle" pointer-events="none" font-size="8px" fill="#000000" x="68.45479014566612" y="3" transform="rotate(180 68.45479014566612 0)" font-family="Helvetica Neue, Helvetica, Arial, sans-serif">subclass of</text></g><g class="relationship" transform="translate(431.8331089701392 -123.0775168509474) rotate(234.12446864447753)"><path class="b-outline" fill="#A5ABB6" stroke="none" d="M 21.40063509461097,-12.933012701892217 L 21.90063509461097,-12.06698729810778 A 97.3357358287905 97.3357358287905 0 0 1 46.107432938126955,-21.98377043295571 L 45.85612677741836,-22.951678080197908 A 98.3357358287905 98.3357358287905 0 0 0 21.40063509461097,-12.933012701892217 Z M 90.81382744158186,-24.000888640235146 L 90.6079478164187,-23.022311315777515 A 97.3357358287905 97.3357358287905 0 0 1 115.25100996908535,-14.245572894230298 L 113.87384340493648,-11.580350154084478 L 121.69939079011708,-11.476388034573906 L 117.08723205461717,-17.799203214424725 L 115.71006549046831,-15.133980474278905 A 98.3357358287905 98.3357358287905 0 0 0 90.81382744158186,-24.000888640235146"/><text text-anchor="middle" pointer-events="none" font-size="8px" fill="#000000" x="68.28586081726601" y="-22.580870988381193" transform="rotate(180 68.28586081726601 -25.580870988381193)" font-family="Helvetica Neue, Helvetica, Arial, sans-serif">opposite of</text></g><g class="relationship" transform="translate(-180.76892646068217 27.28108009404421) rotate(509.47123767977996)"><path class="b-outline" fill="#A5ABB6" stroke="none" d="M 25 0.5 L 65.36992720747904 0.5 L 65.36992720747904 -0.5 L 25 -0.5 Z M 84.26836470747904 0.5 L 124.63829191495807 0.5 L 124.63829191495807 3.5 L 131.63829191495807 0 L 124.63829191495807 -3.5 L 124.63829191495807 -0.5 L 84.26836470747904 -0.5 Z"/><text text-anchor="middle" pointer-events="none" font-size="8px" fill="#000000" x="74.81914595747904" y="3" transform="rotate(180 74.81914595747904 0)" font-family="Helvetica Neue, Helvetica, Arial, sans-serif">use</text></g><g class="relationship" transform="translate(107.31280444036445 387.58052639428735) rotate(220.79305857403483)"><path class="b-outline" fill="#A5ABB6" stroke="none" d="M 25 0.5 L 54.97520734716707 0.5 L 54.97520734716707 -0.5 L 25 -0.5 Z M 83.65489484716707 0.5 L 113.63010219433414 0.5 L 113.63010219433414 3.5 L 120.63010219433414 0 L 113.63010219433414 -3.5 L 113.63010219433414 -0.5 L 83.65489484716707 -0.5 Z"/><text text-anchor="middle" pointer-events="none" font-size="8px" fill="#000000" x="69.31505109716707" y="3" transform="rotate(180 69.31505109716707 0)" font-family="Helvetica Neue, Helvetica, Arial, sans-serif">part of</text></g><g class="relationship" transform="translate(297.5451655844514 74.80835282578825) rotate(198.3521648426244)"><path class="b-outline" fill="#A5ABB6" stroke="none" d="M 25 0.5 L 57.816444273551625 0.5 L 57.816444273551625 -0.5 L 25 -0.5 Z M 86.49613177355162 0.5 L 119.31257604710325 0.5 L 119.31257604710325 3.5 L 126.31257604710325 0 L 119.31257604710325 -3.5 L 119.31257604710325 -0.5 L 86.49613177355162 -0.5 Z"/><text text-anchor="middle" pointer-events="none" font-size="8px" fill="#000000" x="72.15628802355162" y="3" transform="rotate(180 72.15628802355162 0)" font-family="Helvetica Neue, Helvetica, Arial, sans-serif">part of</text></g><g class="relationship" transform="translate(-301.71744576455427 8.353953406763555) rotate(419.4716515232657)"><path class="b-outline" fill="#A5ABB6" stroke="none" d="M 25 0.5 L 51.87842231103403 0.5 L 51.87842231103403 -0.5 L 25 -0.5 Z M 96.56982856103403 0.5 L 123.44825087206806 0.5 L 123.44825087206806 3.5 L 130.44825087206806 0 L 123.44825087206806 -3.5 L 123.44825087206806 -0.5 L 96.56982856103403 -0.5 Z"/><text text-anchor="middle" pointer-events="none" font-size="8px" fill="#000000" x="74.22412543603403" y="3" font-family="Helvetica Neue, Helvetica, Arial, sans-serif">instance of</text></g><g class="relationship" transform="translate(-122.102755823099 371.4649323237737) rotate(326.4476581775182)"><path class="b-outline" fill="#A5ABB6" stroke="none" d="M 25 0.5 L 50.54042252641315 0.5 L 50.54042252641315 -0.5 L 25 -0.5 Z M 85.44667252641315 0.5 L 110.9870950528263 0.5 L 110.9870950528263 3.5 L 117.9870950528263 0 L 110.9870950528263 -3.5 L 110.9870950528263 -0.5 L 85.44667252641315 -0.5 Z"/><text text-anchor="middle" pointer-events="none" font-size="8px" fill="#000000" x="67.99354752641315" y="3" font-family="Helvetica Neue, Helvetica, Arial, sans-serif">has part</text></g><g class="relationship" transform="translate(-180.76892646068217 27.28108009404421) rotate(314.4950368274659)"><path class="b-outline" fill="#A5ABB6" stroke="none" d="M 25 0.5 L 58.22939171651822 0.5 L 58.22939171651822 -0.5 L 25 -0.5 Z M 86.90907921651822 0.5 L 120.13847093303644 0.5 L 120.13847093303644 3.5 L 127.13847093303644 0 L 120.13847093303644 -3.5 L 120.13847093303644 -0.5 L 86.90907921651822 -0.5 Z"/><text text-anchor="middle" pointer-events="none" font-size="8px" fill="#000000" x="72.56923546651822" y="3" font-family="Helvetica Neue, Helvetica, Arial, sans-serif">part of</text></g></g><g class="layer nodes"><g class="node" aria-label="graph-node0" transform="translate(203.15664255142417,123.08399881295195)"><circle class="b-outline" cx="0" cy="0" r="25" fill="#57C7E3" stroke="#23b3d7" stroke-width="2px"/><text class="caption" text-anchor="middle" pointer-events="none" x="0" y="5" font-size="10px" fill="#2A2C34" font-family="Helvetica Neue, Helvetica, Arial, sans-serif"> Carcino…</text></g><g class="node" aria-label="graph-node1" transform="translate(-116.93892585988202,-390.9985329427812)"><circle class="b-outline" cx="0" cy="0" r="25" fill="#57C7E3" stroke="#23b3d7" stroke-width="2px"/><text class="caption" text-anchor="middle" pointer-events="none" x="0" y="0" font-size="10px" fill="#2A2C34" font-family="Helvetica Neue, Helvetica, Arial, sans-serif"> Small</text><text class="caption" text-anchor="middle" pointer-events="none" x="0" y="10" font-size="10px" fill="#2A2C34" font-family="Helvetica Neue, Helvetica, Arial, sans-serif"> molec…</text></g><g class="node" aria-label="graph-node2" transform="translate(-239.486617610812,-213.88902741134)"><circle class="b-outline" cx="0" cy="0" r="25" fill="#57C7E3" stroke="#23b3d7" stroke-width="2px"/><text class="caption" text-anchor="middle" pointer-events="none" x="0" y="0" font-size="10px" fill="#2A2C34" font-family="Helvetica Neue, Helvetica, Arial, sans-serif"> Biological</text><text class="caption" text-anchor="middle" pointer-events="none" x="0" y="10" font-size="10px" fill="#2A2C34" font-family="Helvetica Neue, Helvetica, Arial, sans-serif"> agent</text></g><g class="node" aria-label="graph-node3" transform="translate(431.8331089701392,-123.0775168509474)"><circle class="b-outline" cx="0" cy="0" r="25" fill="#57C7E3" stroke="#23b3d7" stroke-width="2px"/><text class="caption" text-anchor="middle" pointer-events="none" x="0" y="5" font-size="10px" fill="#2A2C34" font-family="Helvetica Neue, Helvetica, Arial, sans-serif"> Ubiquitin</text></g><g class="node" aria-label="graph-node4" transform="translate(297.5451655844514,74.80835282578825)"><circle class="b-outline" cx="0" cy="0" r="25" fill="#57C7E3" stroke="#23b3d7" stroke-width="2px"/><text class="caption" text-anchor="middle" pointer-events="none" x="0" y="5" font-size="10px" fill="#2A2C34" font-family="Helvetica Neue, Helvetica, Arial, sans-serif"> Chromatin</text></g><g class="node" aria-label="graph-node5" transform="translate(-222.7552352079962,142.25364721973386)"><circle class="b-outline" cx="0" cy="0" r="25" fill="#F16667" stroke="#eb2728" stroke-width="2px"/><text class="caption" text-anchor="middle" pointer-events="none" x="0" y="5" font-size="10px" fill="#FFFFFF" font-family="Helvetica Neue, Helvetica, Arial, sans-serif"> Gene</text></g><g class="node" aria-label="graph-node6" transform="translate(-2.939990492445598,292.43617356851036)"><circle class="b-outline" cx="0" cy="0" r="25" fill="#F16667" stroke="#eb2728" stroke-width="2px"/><text class="caption" text-anchor="middle" pointer-events="none" x="0" y="5" font-size="10px" fill="#FFFFFF" font-family="Helvetica Neue, Helvetica, Arial, sans-serif"> DNA</text></g><g class="node" aria-label="graph-node7" transform="translate(-74.14306291066153,-81.24098936675603)"><circle class="b-outline" cx="0" cy="0" r="25" fill="#F16667" stroke="#eb2728" stroke-width="2px"/><text class="caption" text-anchor="middle" pointer-events="none" x="0" y="5" font-size="10px" fill="#FFFFFF" font-family="Helvetica Neue, Helvetica, Arial, sans-serif"> Chromo…</text></g><g class="node" aria-label="graph-node8" transform="translate(248.01355561619175,358.3690819051122)"><circle class="b-outline" cx="0" cy="0" r="25" fill="#F16667" stroke="#eb2728" stroke-width="2px"/><text class="caption" text-anchor="middle" pointer-events="none" x="0" y="5" font-size="10px" fill="#FFFFFF" font-family="Helvetica Neue, Helvetica, Arial, sans-serif"> Protein</text></g><g class="node" aria-label="graph-node9" transform="translate(241.52952295760153,-22.313602356602093)"><circle class="b-outline" cx="0" cy="0" r="25" fill="#F16667" stroke="#eb2728" stroke-width="2px"/><text class="caption" text-anchor="middle" pointer-events="none" x="0" y="5" font-size="10px" fill="#FFFFFF" font-family="Helvetica Neue, Helvetica, Arial, sans-serif"> Cancer</text></g><g class="node" aria-label="graph-node10" transform="translate(18.041371219291516,-437.15348589705366)"><circle class="b-outline" cx="0" cy="0" r="25" fill="#F16667" stroke="#eb2728" stroke-width="2px"/><text class="caption" text-anchor="middle" pointer-events="none" x="0" y="0" font-size="10px" fill="#FFFFFF" font-family="Helvetica Neue, Helvetica, Arial, sans-serif"> Biological</text><text class="caption" text-anchor="middle" pointer-events="none" x="0" y="10" font-size="10px" fill="#FFFFFF" font-family="Helvetica Neue, Helvetica, Arial, sans-serif"> agent</text></g><g class="node" aria-label="graph-node11" transform="translate(-374.4332835884767,-256.87646134006656)"><circle class="b-outline" cx="0" cy="0" r="25" fill="#F16667" stroke="#eb2728" stroke-width="2px"/><text class="caption" text-anchor="middle" pointer-events="none" x="0" y="0" font-size="10px" fill="#FFFFFF" font-family="Helvetica Neue, Helvetica, Arial, sans-serif"> Small</text><text class="caption" text-anchor="middle" pointer-events="none" x="0" y="10" font-size="10px" fill="#FFFFFF" font-family="Helvetica Neue, Helvetica, Arial, sans-serif"> molec…</text></g><g class="node" aria-label="graph-node12" transform="translate(347.4983002856108,-239.68629586767236)"><circle class="b-outline" cx="0" cy="0" r="25" fill="#F16667" stroke="#eb2728" stroke-width="2px"/><text class="caption" text-anchor="middle" pointer-events="none" x="0" y="5" font-size="10px" fill="#FFFFFF" font-family="Helvetica Neue, Helvetica, Arial, sans-serif"> Phospho…</text></g><g class="node" aria-label="graph-node13" transform="translate(-315.69312066499367,106.8487639383843)"><circle class="b-outline" cx="0" cy="0" r="25" fill="#F16667" stroke="#eb2728" stroke-width="2px"/><text class="caption" text-anchor="middle" pointer-events="none" x="0" y="5" font-size="10px" fill="#FFFFFF" font-family="Helvetica Neue, Helvetica, Arial, sans-serif"> Chromo…</text></g><g class="node" aria-label="graph-node14" transform="translate(153.92846664664552,27.166570153243057)"><circle class="b-outline" cx="0" cy="0" r="25" fill="#F16667" stroke="#eb2728" stroke-width="2px"/><text class="caption" text-anchor="middle" pointer-events="none" x="0" y="5" font-size="10px" fill="#FFFFFF" font-family="Helvetica Neue, Helvetica, Arial, sans-serif"> Cytopla…</text></g><g class="node" aria-label="graph-node15" transform="translate(-301.71744576455427,8.353953406763555)"><circle class="b-outline" cx="0" cy="0" r="25" fill="#57C7E3" stroke="#23b3d7" stroke-width="2px"/><text class="caption" text-anchor="middle" pointer-events="none" x="0" y="5" font-size="10px" fill="#2A2C34" font-family="Helvetica Neue, Helvetica, Arial, sans-serif"> Adenom…</text></g><g class="node" aria-label="graph-node16" transform="translate(-122.102755823099,371.4649323237737)"><circle class="b-outline" cx="0" cy="0" r="25" fill="#57C7E3" stroke="#23b3d7" stroke-width="2px"/><text class="caption" text-anchor="middle" pointer-events="none" x="0" y="5" font-size="10px" fill="#2A2C34" font-family="Helvetica Neue, Helvetica, Arial, sans-serif"> Chromo…</text></g><g class="node" aria-label="graph-node17" transform="translate(-180.76892646068217,27.28108009404421)"><circle class="b-outline" cx="0" cy="0" r="25" fill="#57C7E3" stroke="#23b3d7" stroke-width="2px"/><text class="caption" text-anchor="middle" pointer-events="none" x="0" y="0" font-size="10px" fill="#2A2C34" font-family="Helvetica Neue, Helvetica, Arial, sans-serif"> Spindle</text><text class="caption" text-anchor="middle" pointer-events="none" x="0" y="10" font-size="10px" fill="#2A2C34" font-family="Helvetica Neue, Helvetica, Arial, sans-serif"> appar…</text></g><g class="node" aria-label="graph-node18" transform="translate(20.213675434819834,-191.6355519248866)"><circle class="b-outline" cx="0" cy="0" r="25" fill="#57C7E3" stroke="#23b3d7" stroke-width="2px"/><text class="caption" text-anchor="middle" pointer-events="none" x="0" y="5" font-size="10px" fill="#2A2C34" font-family="Helvetica Neue, Helvetica, Arial, sans-serif"> DNA</text></g><g class="node" aria-label="graph-node19" transform="translate(107.31280444036445,387.58052639428735)"><circle class="b-outline" cx="0" cy="0" r="25" fill="#57C7E3" stroke="#23b3d7" stroke-width="2px"/><text class="caption" text-anchor="middle" pointer-events="none" x="0" y="0" font-size="10px" fill="#2A2C34" font-family="Helvetica Neue, Helvetica, Arial, sans-serif"> Stop</text><text class="caption" text-anchor="middle" pointer-events="none" x="0" y="10" font-size="10px" fill="#2A2C34" font-family="Helvetica Neue, Helvetica, Arial, sans-serif"> codon</text></g></g></svg>